<?xml version="1.0" encoding="UTF-8" standalone="no"?>
<!DOCTYPE svg PUBLIC "-//W3C//DTD SVG 1.1//EN" "http://www.w3.org/Graphics/SVG/1.1/DTD/svg11.dtd">
<svg xmlns="http://www.w3.org/2000/svg" xmlns:xlink="http://www.w3.org/1999/xlink" version="1.1" width="119.2083pt" height="108.181pt" viewBox="0 0 119.2083 108.181">
<g enable-background="new">
<g id="Layer-1" data-name="Layer 1">
<path transform="matrix(1,0,0,-1,1,107.181)" d="M 106.3519 47.1892 C 106.3519 73.2506 85.225 94.3778 59.1627 94.3778 C 33.1013 94.3778 11.9738 73.2506 11.9738 47.1892 C 11.9738 21.1272 33.1013 0 59.1627 0 C 85.225 0 106.3519 21.1272 106.3519 47.1892 " fill="#f9e0c8"/>
<path transform="matrix(1,0,0,-1,1,107.181)" d="M 9.3124 16.5132 C 5.2801 16.5132 1.9599 19.5384 1.5897 23.5505 L .0332 40.4121 C -.341 44.4671 2.5092 48.1416 6.5222 48.7783 C 23.7654 51.5134 41.3677 52.9007 58.8399 52.9007 C 76.1533 52.9007 93.5929 51.5398 110.6748 48.8563 C 114.6943 48.2244 117.5494 44.5493 117.1752 40.4881 L 115.6178 23.6197 C 115.2473 19.6075 111.9268 16.5821 107.8951 16.5821 L 107.8946 16.5821 C 107.5133 16.5821 107.1289 16.6105 106.7499 16.6666 C 90.9471 18.9986 74.8276 20.1813 58.8399 20.1813 C 42.6923 20.1813 26.4175 18.976 10.4678 16.5991 C 10.0854 16.5421 9.6968 16.5132 9.3124 16.5132 " fill="#f9e0c8"/>
<path transform="matrix(1,0,0,-1,1,107.181)" d="M 103.5266 47.1889 C 103.5266 71.6774 83.6751 91.529 59.1868 91.529 C 34.6983 91.529 14.8467 71.6774 14.8467 47.1889 C 14.8467 22.7007 34.6983 2.8491 59.1868 2.8491 C 83.6751 2.8491 103.5266 22.7007 103.5266 47.1889 " fill="#321e0f"/>
<path transform="matrix(1,0,0,-1,1,107.181)" d="M 58.8399 50.0306 C 41.2795 50.0306 23.9698 48.64 6.9718 45.9437 C 4.4374 45.5417 2.6555 43.2312 2.8911 40.676 L 4.4478 23.8141 C 4.7061 21.0161 7.2658 19.0236 10.0449 19.4377 C 26.0546 21.8237 42.3366 23.0513 58.8399 23.0513 C 75.183 23.0513 91.309 21.8463 107.1689 19.5058 C 109.9463 19.0959 112.5014 21.0878 112.7597 23.8833 L 114.317 40.752 C 114.5529 43.31 112.7676 45.6219 110.2294 46.0208 C 93.3851 48.6672 76.2352 50.0306 58.8399 50.0306 " fill="#321e0f"/>
<path transform="matrix(1,0,0,-1,1,107.181)" d="M 17.5731 42.9236 C 18.1253 39.2114 18.4127 35.4685 18.7325 31.7313 C 18.8668 30.2443 17.9408 29.3698 15.9534 29.086 C 16.1314 27.4805 16.2315 26.6777 16.4962 25.0722 C 15.226 24.9367 14.5947 24.8664 13.3444 24.7209 C 13.0561 26.3239 12.9487 27.1256 12.7585 28.7291 C 10.7459 28.5375 9.6591 29.1844 9.4958 30.693 C 9.1179 34.4188 8.7843 38.1546 8.0858 41.8385 C 9.4017 42.0046 10.0599 42.0851 11.3774 42.2405 C 12.0266 38.4763 12.3341 34.6677 12.6924 30.8684 C 13.8158 30.9988 14.3807 31.0623 15.5146 31.1851 C 15.1739 34.9883 14.8796 38.7989 14.2747 42.5721 C 15.5937 42.7181 16.253 42.7884 17.5731 42.9236 " fill="#f9e0c8"/>
<path transform="matrix(1,0,0,-1,1,107.181)" d="M 23.73 31.9847 C 24.8922 32.0856 25.4747 32.1341 26.6386 32.2265 C 26.373 35.3733 26.1006 38.5149 25.7876 41.6571 C 24.6183 41.5607 24.0338 41.5103 22.8654 41.4057 C 23.188 38.2669 23.4629 35.1289 23.73 31.9847 Z M 28.0766 43.3511 C 28.6843 42.9857 29.0305 42.4145 29.1101 41.6398 C 29.592 36.5287 29.9832 31.4113 30.5303 26.3064 C 29.2329 26.2145 28.5823 26.1663 27.282 26.0643 C 27.0709 27.7019 26.9855 28.5208 26.8277 30.1584 C 25.6649 30.0662 25.0835 30.0183 23.9224 29.9186 C 24.0846 28.2824 24.1733 27.4643 24.3986 25.8282 C 23.1009 25.7176 22.4529 25.6595 21.1629 25.5387 C 20.5166 30.6431 20.1399 35.7704 19.6036 40.8869 C 19.4185 42.4307 20.3936 43.3157 22.5978 43.5138 C 23.7722 43.6192 24.3595 43.67 25.5348 43.7672 C 26.6187 43.8568 27.468 43.7168 28.0766 43.3511 " fill="#f9e0c8"/>
<path transform="matrix(1,0,0,-1,1,107.181)" d="M 41.1415 33.6132 C 41.6188 33.26 41.8813 32.7081 41.9329 31.9592 C 42.0704 29.9682 42.1396 28.9726 42.2821 26.9819 C 40.9833 26.924 40.3271 26.8931 39.0059 26.8248 C 38.8519 28.5693 38.7814 29.4412 38.6436 31.1856 C 38.5892 31.8767 38.4012 32.3816 38.0792 32.6974 C 37.7569 33.0129 37.2603 33.1529 36.5893 33.1152 C 36.0524 33.0849 35.7837 33.069 35.2454 33.0372 C 35.4538 30.4818 35.5584 29.2045 35.818 26.6488 C 34.5351 26.5737 33.8899 26.5331 32.5964 26.4478 C 31.9927 32.3175 31.5731 38.2031 30.9691 44.0731 C 32.2937 44.1646 32.9564 44.208 34.2819 44.2885 C 34.583 41.3186 34.8279 38.3406 35.0583 35.3642 C 35.5079 35.3908 35.7324 35.4042 36.1814 35.43 C 37.4528 35.5025 38.0421 36.1069 37.9545 37.2492 C 37.7334 40.1357 37.6248 41.5789 37.3671 44.4654 C 38.7275 44.538 39.4075 44.5717 40.7687 44.6329 C 40.9799 41.7362 41.08 40.2877 41.2809 37.391 C 41.3328 36.6423 41.1653 36.0442 40.7792 35.5935 C 40.3931 35.1434 39.7905 34.8143 38.9682 34.6025 C 38.975 34.5095 38.9784 34.4631 38.9854 34.3701 C 39.9464 34.2201 40.6636 33.9664 41.1415 33.6132 " fill="#f9e0c8"/>
<path transform="matrix(1,0,0,-1,1,107.181)" d="M 46.9826 29.1991 C 48.1334 29.236 48.7094 29.2521 49.8603 29.2799 C 49.6616 34.4957 49.4626 39.7117 49.2642 44.9271 C 50.5919 44.9597 51.2558 44.9728 52.5835 44.9943 C 52.7142 39.8483 52.8446 34.7014 52.9753 29.5551 C 53.015 27.9856 52.0036 27.1885 49.9419 27.1383 C 48.801 27.1106 48.2304 27.0947 47.0894 27.0584 C 45.0278 26.9929 43.9489 27.7316 43.8508 29.2997 C 43.5288 34.4407 43.2068 39.5816 42.8842 44.7225 C 44.2114 44.7758 44.875 44.7996 46.2025 44.8415 C 46.4624 39.6275 46.7226 34.4134 46.9826 29.1991 " fill="#f9e0c8"/>
<path transform="matrix(1,0,0,-1,1,107.181)" d="M 58.0317 42.9029 C 58.0448 39.9832 58.0581 37.0636 58.0711 34.1439 C 59.2013 34.147 59.7662 34.1467 60.8958 34.1422 C 60.916 37.0613 60.9358 39.9813 60.9557 42.9009 C 59.7861 42.906 59.2016 42.9063 58.0317 42.9029 Z M 64.2447 42.6617 C 64.1903 39.8832 64.1364 37.1052 64.082 34.327 C 64.0511 32.7572 62.9844 31.9898 60.8817 31.9989 C 59.7611 32.0037 59.2013 32.004 58.0808 32.0012 C 58.089 30.1422 58.0932 29.2133 58.1017 27.3549 C 56.8636 27.3512 56.2445 27.3472 55.0063 27.3334 C 54.9045 33.23 54.8031 39.1269 54.701 45.023 C 57.2088 45.0507 58.4629 45.055 60.9704 45.0437 C 63.1837 45.0343 64.2753 44.2312 64.2447 42.6617 " fill="#f9e0c8"/>
<path transform="matrix(1,0,0,-1,1,107.181)" d="M 75.1915 33.118 C 76.4376 33.0667 77.0664 33.0389 78.3286 32.9783 C 78.2155 31.4453 78.1586 30.6785 78.0403 29.1453 C 77.9193 27.5786 76.8005 26.8495 74.7405 26.9337 C 73.6747 26.977 73.1415 26.9972 72.0754 27.0329 C 70.014 27.1026 69.0148 27.9099 69.0783 29.4786 C 69.2552 33.874 69.4327 38.2697 69.6098 42.6654 C 69.6728 44.2341 70.8114 44.9949 73.0244 44.9201 C 74.1467 44.8824 74.7074 44.8617 75.8293 44.8157 C 78.0412 44.7259 79.0826 43.884 78.9616 42.317 C 78.8536 40.9107 78.8012 40.208 78.6977 38.802 C 77.4196 38.8641 76.7854 38.8928 75.5099 38.9449 C 75.606 40.4447 75.6541 41.1951 75.7502 42.6949 C 74.6152 42.7411 74.0477 42.7626 72.9125 42.8009 C 72.6718 38.2725 72.4317 33.7445 72.1911 29.2161 C 73.2886 29.179 73.8371 29.1586 74.9344 29.1138 C 75.037 30.7154 75.0889 31.5164 75.1915 33.118 " fill="#f9e0c8"/>
<path transform="matrix(1,0,0,-1,1,107.181)" d="M 87.4794 44.0694 C 88.7927 43.9781 89.4489 43.9299 90.7617 43.8284 C 90.1162 37.9655 89.71 32.0822 89.0649 26.2199 C 87.7768 26.3146 87.1333 26.3594 85.8509 26.4444 C 86.1415 29.0143 86.2509 30.2992 86.4675 32.8697 C 85.2389 32.9525 84.6255 32.991 83.4026 33.0647 C 83.1923 30.4926 83.0866 29.2062 82.823 26.634 C 81.5394 26.7103 80.9002 26.746 79.6317 26.8121 C 80.1317 32.6937 80.5527 38.5818 81.0527 44.464 C 82.3791 44.3931 83.0418 44.3548 84.3673 44.2729 C 84.0597 41.2679 83.8123 38.2547 83.5781 35.2434 C 84.8041 35.1692 85.4181 35.1298 86.648 35.0464 C 86.8847 38.0557 87.1413 41.0695 87.4794 44.0694 " fill="#f9e0c8"/>
<path transform="matrix(1,0,0,-1,1,107.181)" d="M 100.5114 40.693 C 98.6791 40.8804 97.7615 40.9689 95.925 41.1352 C 95.6134 38.4129 95.5162 37.0517 95.2883 34.3293 C 96.8006 34.1949 97.5563 34.1246 99.0621 33.9769 C 98.7644 33.1401 98.6159 32.7217 98.3146 31.8841 C 97.0339 32.0071 96.3913 32.0661 95.1052 32.1792 C 94.9592 30.5184 94.8838 29.6878 94.6939 28.0267 C 96.6047 27.8612 97.5586 27.7727 99.4518 27.5854 C 99.1182 26.7151 98.947 26.2797 98.589 25.4089 C 95.6409 25.6958 94.1457 25.8259 91.165 26.06 C 91.8349 31.9178 92.23 37.7991 92.8998 43.6569 C 95.8425 43.4134 97.3125 43.2785 100.2492 42.9817 C 100.3416 42.0659 100.3955 41.6081 100.5114 40.693 " fill="#f9e0c8"/>
<path transform="matrix(1,0,0,-1,1,107.181)" d="M 109.9125 39.5748 C 108.1074 39.8038 107.2026 39.9129 105.3884 40.121 C 105.0225 37.4261 104.9241 36.0782 104.6792 33.3831 C 106.2011 33.2104 106.9586 33.1209 108.462 32.9338 C 108.1579 32.106 108.0065 31.6913 107.6984 30.8628 C 106.4188 31.0192 105.7748 31.0949 104.4799 31.2412 C 104.2333 28.6963 104.1077 27.4235 103.6675 24.8786 C 102.4078 25.0194 101.7726 25.0875 100.4947 25.2184 C 101.2864 31.0504 101.6473 36.9224 102.4396 42.7544 C 105.3626 42.4426 106.8228 42.2739 109.7385 41.9097 C 109.7904 40.9757 109.8269 40.5088 109.9125 39.5748 " fill="#f9e0c8"/>
<path transform="matrix(1,0,0,-1,1,107.181)" d="M 73.9208 73.9114 C 72.8921 69.5358 69.0928 68.8759 67.2676 66.3486 C 65.3525 63.6973 64.8054 53.5995 57.8259 50.0128 C 65.8103 49.8963 88.162 49.0918 99.0315 47.6297 C 99.0357 47.6291 99.0391 47.6325 99.0391 47.6365 C 98.9073 59.5871 93.5175 70.274 85.0728 77.4941 C 84.0603 78.3598 79.8534 81.9179 79.6419 80.6023 C 79.4971 79.7 74.1081 74.7079 73.9208 73.9114 " fill="#cd3040"/>
<path transform="matrix(1,0,0,-1,1,107.181)" d="M 49.5431 64.8238 C 49.5476 64.8663 49.9343 70.3477 49.9348 70.3902 C 49.949 71.7483 47.8171 70.181 47.8928 71.464 C 47.9364 72.2052 47.1872 73.038 47.8483 73.101 C 56.6552 73.938 47.9948 74.5432 47.9724 74.6569 C 47.9514 74.7641 47.9395 74.8721 47.9364 74.9812 L 47.9273 75.3199 C 47.8417 78.5231 40.818 77.8927 40.5833 79.6827 L 40.246 82.254 C 40.2452 82.2597 40.2392 82.2628 40.2344 82.26 C 27.8904 75.5753 19.476 62.5637 19.3337 47.5739 C 19.3337 47.5719 19.3351 47.5705 19.3374 47.5707 C 26.644 48.7814 52.5552 49.5527 55.984 49.866 C 53.2647 52.3264 48.8078 57.8529 49.5431 64.8238 " fill="#cd3040"/>
<path transform="matrix(1,0,0,-1,1,107.181)" d="M 59.3266 23.0513 C 50.1718 23.0513 41.0854 22.6709 32.0754 21.9263 C 30.6162 21.8058 29.9772 20.0336 31.013 18.9986 C 38.2249 11.7901 48.1844 7.3312 59.1868 7.3312 C 70.2003 7.3312 80.1692 11.7995 87.3828 19.0208 C 88.4177 20.0565 87.7776 21.8285 86.3184 21.9478 C 77.3935 22.678 68.3938 23.0513 59.3266 23.0513 " fill="#cd3040"/>
<path transform="matrix(1,0,0,-1,1,107.181)" d="M 42.0401 14.0817 L 42.0401 19.4077 L 42.8511 19.4077 L 42.8511 16.9566 L 43.662 19.4077 L 44.5003 19.4077 L 43.6167 16.7808 L 44.5697 14.0817 L 43.7136 14.0817 L 42.8573 16.5691 L 42.8573 14.0817 Z " fill="#f9e0c8"/>
<path transform="matrix(1,0,0,-1,1,107.181)" d="M 46.8992 15.6824 L 46.542 18.3574 L 46.5301 18.3574 L 46.2033 15.6824 Z M 45.229 14.082 L 45.9884 19.4077 L 47.0597 19.4077 L 47.8675 14.082 L 47.111 14.082 L 46.984 15.0318 L 46.1245 15.0318 L 46.0094 14.082 Z " fill="#f9e0c8"/>
<path transform="matrix(1,0,0,-1,1,107.181)" d="M 48.9382 15.5795 L 48.9382 16.0546 L 49.7069 16.0546 L 49.7069 15.5191 C 49.7069 15.2226 49.7322 15.0143 49.7823 14.8944 C 49.8328 14.7739 49.9277 14.7141 50.0669 14.7141 C 50.2058 14.7141 50.2982 14.7637 50.3436 14.8623 C 50.3889 14.9613 50.4116 15.1228 50.4116 15.3465 C 50.4116 15.5707 50.3714 15.7657 50.2909 15.9324 C 50.2101 16.0988 50.082 16.2726 49.9065 16.4543 L 49.513 16.8596 C 49.3296 17.0512 49.1868 17.2497 49.0847 17.4555 C 48.983 17.6615 48.9322 17.8997 48.9322 18.1695 C 48.9322 18.6097 49.0167 18.9363 49.1865 19.15 C 49.3557 19.364 49.6474 19.4712 50.061 19.4712 C 50.4746 19.4712 50.7543 19.3465 50.9006 19.0973 C 51.0469 18.8481 51.12 18.4844 51.12 18.0062 L 51.12 17.6769 L 50.3725 17.6769 L 50.3725 18.0578 C 50.3725 18.3161 50.3504 18.5012 50.3062 18.6131 C 50.2617 18.7251 50.1763 18.7809 50.0502 18.7809 C 49.9241 18.7809 49.8334 18.7387 49.7781 18.654 C 49.7222 18.5692 49.6947 18.4422 49.6947 18.2727 C 49.6947 18.1035 49.7228 17.9683 49.7795 17.8673 C 49.8359 17.7664 49.938 17.6372 50.0851 17.4798 L 50.5236 17.005 C 50.7438 16.7669 50.9097 16.526 51.0216 16.2816 C 51.1336 16.0376 51.1894 15.7714 51.1894 15.4828 C 51.1894 14.9848 51.1055 14.6163 50.9383 14.3782 C 50.7711 14.1403 50.478 14.021 50.0593 14.021 C 49.6409 14.021 49.3492 14.1537 49.1848 14.4193 C 49.0207 14.6843 48.9382 15.0712 48.9382 15.5795 " fill="#f9e0c8"/>
<path transform="matrix(1,0,0,-1,1,107.181)" d="M 53.8305 15.6824 L 53.4736 18.3574 L 53.4614 18.3574 L 53.1346 15.6824 Z M 52.16 14.082 L 52.92 19.4077 L 53.9909 19.4077 L 54.7988 14.082 L 54.0422 14.082 L 53.9152 15.0318 L 53.0558 15.0318 L 52.9407 14.082 Z " fill="#f9e0c8"/>
<path transform="matrix(1,0,0,-1,1,107.181)" d="M 56.7865 16.8506 L 57.0648 16.8506 C 57.236 16.8506 57.3477 16.9163 57.399 17.0484 C 57.4503 17.1808 57.4761 17.4325 57.4761 17.8036 L 57.4761 17.9067 C 57.4739 18.2211 57.4464 18.4462 57.3931 18.5814 C 57.3398 18.7166 57.2321 18.7841 57.0708 18.7841 L 56.7865 18.7841 Z M 55.9752 14.082 L 55.9752 19.4074 L 57.1978 19.4074 C 57.6113 19.4074 57.8942 19.2818 58.0465 19.0307 C 58.199 18.7798 58.2792 18.4048 58.2871 17.9067 L 58.2871 17.7948 C 58.2871 17.2661 58.212 16.865 58.0618 16.5917 C 57.9115 16.3182 57.6323 16.1816 57.2253 16.1816 L 56.7865 16.1816 L 56.7865 14.082 Z " fill="#f9e0c8"/>
<path transform="matrix(1,0,0,-1,1,107.181)" d="M 61.0758 15.5795 L 61.0758 16.0546 L 61.8443 16.0546 L 61.8443 15.5191 C 61.8443 15.2226 61.8698 15.0143 61.92 14.8944 C 61.9705 14.7739 62.0651 14.7141 62.2046 14.7141 C 62.3438 14.7141 62.4359 14.7637 62.4813 14.8623 C 62.5269 14.9613 62.5496 15.1228 62.5496 15.3465 C 62.5496 15.5707 62.509 15.7657 62.4285 15.9324 C 62.3477 16.0988 62.2196 16.2726 62.0442 16.4543 L 61.6507 16.8596 C 61.467 17.0512 61.3244 17.2497 61.2227 17.4555 C 61.1206 17.6615 61.0699 17.8997 61.0699 18.1695 C 61.0699 18.6097 61.1544 18.9363 61.3239 19.15 C 61.4934 19.364 61.7851 19.4712 62.1984 19.4712 C 62.6122 19.4712 62.8917 19.3465 63.038 19.0973 C 63.1845 18.8481 63.2577 18.4844 63.2577 18.0062 L 63.2577 17.6769 L 62.5099 17.6769 L 62.5099 18.0578 C 62.5099 18.3161 62.4878 18.5012 62.4438 18.6131 C 62.3993 18.7251 62.3137 18.7809 62.1879 18.7809 C 62.062 18.7809 61.971 18.7387 61.9157 18.654 C 61.8599 18.5692 61.8324 18.4422 61.8324 18.2727 C 61.8324 18.1035 61.8605 17.9683 61.9172 17.8673 C 61.9736 17.7664 62.0751 17.6372 62.2227 17.4798 L 62.6613 17.005 C 62.8815 16.7669 63.0473 16.526 63.1593 16.2816 C 63.2713 16.0376 63.3274 15.7714 63.3274 15.4828 C 63.3274 14.9848 63.2435 14.6163 63.076 14.3782 C 62.9087 14.1403 62.6153 14.021 62.1969 14.021 C 61.7786 14.021 61.4871 14.1537 61.3225 14.4193 C 61.158 14.6843 61.0758 15.0712 61.0758 15.5795 " fill="#f9e0c8"/>
<path transform="matrix(1,0,0,-1,1,107.181)" d="M 64.8122 14.0817 L 64.8122 18.7053 L 64.1889 18.7053 L 64.1889 19.4077 L 66.2193 19.4077 L 66.2193 18.7053 L 65.6198 18.7053 L 65.6198 14.0817 Z " fill="#f9e0c8"/>
<path transform="matrix(1,0,0,-1,1,107.181)" d="M 67.2868 14.0817 L 67.2868 19.4077 L 69.0724 19.4077 L 69.0724 18.7084 L 68.0981 18.7084 L 68.0981 17.159 L 69.0239 17.159 L 69.0239 16.4755 L 68.0981 16.4755 L 68.0981 14.781 L 69.1087 14.781 L 69.1087 14.0817 Z " fill="#f9e0c8"/>
<path transform="matrix(1,0,0,-1,1,107.181)" d="M 71.8041 15.6824 L 71.447 18.3574 L 71.4348 18.3574 L 71.1079 15.6824 Z M 70.134 14.082 L 70.8934 19.4077 L 71.9646 19.4077 L 72.7724 14.082 L 72.0159 14.082 L 71.8886 15.0318 L 71.0294 15.0318 L 70.9143 14.082 Z " fill="#f9e0c8"/>
<path transform="matrix(1,0,0,-1,1,107.181)" d="M 73.8249 14.0817 L 73.8249 19.4077 L 74.6357 19.4077 L 74.6357 16.9566 L 75.4469 19.4077 L 76.2849 19.4077 L 75.4013 16.7808 L 76.3543 14.0817 L 75.4982 14.0817 L 74.6419 16.5691 L 74.6419 14.0817 Z " fill="#f9e0c8"/>
<path transform="matrix(1,0,0,-1,1,107.181)" d="M 85.9453 85.6826 C 84.6028 86.9981 83.3 88.0515 81.9626 88.8996 C 81.9955 88.9404 82.0828 89.0498 82.0828 89.0498 C 82.47 89.5499 82.8176 90.0655 83.1115 90.5763 C 83.7669 91.7056 84.2207 92.9395 84.4603 94.2386 C 84.693 95.4876 84.708 96.789 84.5073 98.0932 C 84.3381 99.2268 83.988 100.3949 83.4605 101.5795 C 83.2226 102.1059 82.9539 102.6224 82.6699 103.1012 C 82.4924 103.4036 82.3133 103.6704 82.1665 103.8832 C 82.0179 104.0961 81.8345 104.3529 81.5956 104.6432 L 80.331 106.1807 L 75.7494 104.61 L 75.704 102.6091 C 75.6845 101.7499 75.562 100.9485 75.3378 100.2197 C 75.117 99.4978 74.7856 98.8234 74.3428 98.204 C 73.5001 97.0109 72.2126 95.9905 70.5197 95.1721 C 68.9664 94.4235 67.1457 93.8699 65.1172 93.5289 C 64.6228 93.4472 64.1401 93.3817 63.6936 93.3358 L 63.5672 93.3233 L 63.4725 93.3188 C 63.4725 93.3188 63.3699 93.3211 63.3271 93.3216 C 63.2755 93.3245 63.1242 93.335 63.1242 93.335 L 62.8211 93.3673 C 62.0816 93.4634 61.2258 93.636 60.2742 93.8809 C 59.9542 93.9835 59.6217 94.0422 59.2821 94.0558 C 59.2223 94.0586 59.163 94.0601 59.1032 94.0601 L 59.0666 94.0601 C 59.0666 94.0601 58.9499 94.0564 58.9096 94.0535 C 58.5791 94.0368 58.2568 93.9773 57.9481 93.8772 C 57.0025 93.634 56.1509 93.4625 55.4159 93.3673 L 55.1132 93.335 C 55.1132 93.335 54.9615 93.3245 54.9099 93.3216 C 54.8674 93.3211 54.8246 93.3197 54.7818 93.3185 L 54.6698 93.3233 L 54.5547 93.3347 C 54.0969 93.3817 53.6145 93.4472 53.1286 93.5271 C 51.0914 93.8699 49.2707 94.4235 47.7204 95.1707 C 46.0247 95.9905 44.7375 97.0109 43.8851 98.2168 C 43.4517 98.8234 43.1201 99.4975 42.8975 100.2266 C 42.6753 100.9488 42.5529 101.7502 42.5336 102.6085 L 42.4885 104.61 L 37.9052 106.181 L 36.6409 104.6424 C 36.4025 104.3524 36.2188 104.0956 36.0604 103.8682 C 35.8591 103.5754 35.7072 103.3396 35.5748 103.1136 C 35.282 102.6207 35.0133 102.1037 34.7706 101.5659 C 34.2493 100.3958 33.8992 99.2273 33.7317 98.1057 C 33.5293 96.7881 33.5443 95.487 33.7759 94.2432 C 34.0163 92.9395 34.4704 91.7059 35.1215 90.5831 C 35.4195 90.0655 35.7673 89.5499 36.1542 89.0498 C 36.1542 89.0498 36.2412 88.9404 36.2744 88.8999 C 34.9447 88.0574 33.6396 87.0032 32.3101 85.7004 L 32.2787 85.6701 C 31.0779 84.4957 30.8962 82.6381 31.8461 81.254 C 31.9422 81.114 32.0136 81.0181 32.0865 80.9237 C 32.1574 80.8308 32.2294 80.7406 32.3031 80.6513 C 32.4363 80.4883 32.5732 80.331 32.7214 80.168 C 32.9839 79.8812 33.2671 79.5971 33.5699 79.3168 C 34.1422 78.791 34.7669 78.3031 35.4322 77.864 C 36.7665 76.9876 38.2065 76.3404 39.7052 75.9427 C 40.5363 75.7199 41.3813 75.5657 42.2308 75.4815 C 42.2291 75.4639 42.2271 75.4461 42.2254 75.4282 C 42.1999 75.1493 42.1829 74.8721 42.1758 74.6053 C 42.1665 74.2666 42.1801 73.9154 42.2169 73.5585 C 42.2892 72.8649 42.4522 72.1834 42.7003 71.5365 C 42.8204 71.2216 42.9619 70.9092 43.1127 70.6255 C 43.1906 70.4758 43.278 70.3244 43.3627 70.1841 L 43.5705 69.8502 C 43.8129 69.4709 44.0838 69.0812 44.407 68.6472 C 44.7491 68.1928 45.0978 67.75 45.4436 67.3109 C 46.0834 66.4985 46.688 65.7306 47.1946 64.948 C 47.5509 64.4031 47.8587 63.8459 48.1011 63.3081 C 48.1504 63.1973 48.1978 63.0836 48.2437 62.9671 C 48.1235 62.6675 48.0251 62.3557 47.9494 62.0334 C 47.9032 61.8364 47.8539 61.6363 47.8003 61.4188 C 47.2275 59.0922 46.3618 55.5761 48.8038 52.8273 C 49.4527 52.0968 50.2673 51.5188 51.2362 51.0996 C 51.4701 50.6421 51.762 50.2274 52.1073 49.8654 C 53.0651 48.8611 54.3889 48.3075 55.834 48.3075 L 62.4033 48.3075 C 63.8487 48.3075 65.1725 48.8611 66.1297 49.8654 C 66.475 50.2274 66.7667 50.6421 67.0005 51.0999 C 67.97 51.5194 68.7844 52.0971 69.4338 52.8273 C 71.8756 55.5761 71.0096 59.0922 70.437 61.4177 L 70.429 61.45 C 70.3809 61.6473 70.3329 61.8423 70.2876 62.0337 C 70.2122 62.356 70.1135 62.6678 69.9936 62.9674 C 70.0373 63.0788 70.0821 63.1862 70.1283 63.2903 C 70.3789 63.8456 70.6864 64.4031 71.0504 64.9602 C 71.5499 65.7312 72.1542 66.4994 72.7948 67.3121 C 73.1401 67.7506 73.4882 68.1934 73.8386 68.6591 C 74.1526 69.0806 74.4236 69.4701 74.6666 69.8494 L 74.8746 70.1841 C 74.9588 70.3233 75.0453 70.4738 75.1158 70.6085 C 75.2746 70.9081 75.416 71.2202 75.5351 71.5311 C 75.7851 72.1831 75.9484 72.8651 76.0204 73.5605 C 76.0572 73.9165 76.0711 74.2694 76.0615 74.6008 C 76.0544 74.867 76.0377 75.1453 76.0096 75.4495 L 76.0062 75.4812 C 76.8552 75.5657 77.6988 75.7193 78.5254 75.941 C 80.0311 76.3404 81.4708 76.9876 82.8102 77.8677 C 83.4704 78.3031 84.0951 78.791 84.6746 79.3236 C 84.9688 79.5957 85.2514 79.8792 85.5266 80.1797 C 85.6647 80.3324 85.8008 80.4881 85.9377 80.6547 C 86.0094 80.7429 86.0808 80.8319 86.1395 80.909 C 86.2231 81.0173 86.294 81.1123 86.3892 81.2511 C 87.3403 82.6353 87.16 84.4929 85.9453 85.6826 " fill="#f9e0c8"/>
<path transform="matrix(1,0,0,-1,1,107.181)" d="M 55.3689 58.8657 C 55.283 58.9737 55.1832 59.0346 55.0403 59.0477 C 54.9677 59.0522 54.8989 59.0666 54.824 59.076 C 54.7883 59.0828 54.7509 59.0888 54.7152 59.0973 C 54.68 59.1066 54.6489 59.1214 54.616 59.135 C 54.3594 59.2481 54.0967 59.3889 53.8294 59.561 C 53.5586 59.7308 53.3001 59.9454 53.043 60.1843 L 52.8486 60.1234 C 52.8168 59.7334 52.882 59.3569 52.9929 58.9791 C 53.0243 58.8872 53.0541 58.7923 53.0909 58.6998 L 53.2125 58.4263 L 53.3625 58.1644 C 53.4144 58.0771 53.4767 57.998 53.5351 57.9132 L 53.7126 57.6527 C 53.7727 57.564 53.8291 57.4662 53.8985 57.3831 C 53.9685 57.3012 54.0462 57.2264 54.1346 57.1686 C 54.2214 57.1079 54.3266 57.0798 54.4309 57.0555 C 54.6409 57.0061 54.8734 57.0229 55.1044 57.0818 C 55.3371 57.1496 55.5746 57.274 55.8094 57.5067 L 55.8587 57.7043 C 55.7759 58.0394 55.6866 58.2401 55.6095 58.4311 C 55.5316 58.6174 55.4496 58.7489 55.3689 58.8657 " fill="#321e0f"/>
<path transform="matrix(1,0,0,-1,1,107.181)" d="M 53.286 74.5889 C 53.1641 74.5024 53.0306 74.4503 52.9642 74.4642 C 52.9299 74.4715 52.9177 74.4812 52.905 74.499 L 52.8483 74.5676 C 52.7947 74.632 52.7289 74.7371 52.662 74.8655 C 52.6433 74.9013 52.632 74.9296 52.6076 74.9707 L 52.5317 75.0932 L 52.3769 75.3381 C 52.325 75.4194 52.2731 75.5025 52.2139 75.5776 L 52.0333 75.8021 L 51.8465 76.0221 C 51.781 76.0927 51.7099 76.159 51.6413 76.2267 C 51.0871 76.7659 50.3932 77.1778 49.6502 77.3875 C 49.2761 77.4842 48.8959 77.5483 48.5141 77.5375 C 48.1354 77.5267 47.755 77.4765 47.4103 77.3198 C 48.1218 77.1129 48.7361 76.847 49.3002 76.5244 C 49.4042 76.4634 49.5043 76.3988 49.6043 76.3342 C 49.606 76.2415 49.5729 75.9288 49.0031 76.1913 C 48.8251 76.0209 48.6819 75.8149 48.5861 75.5838 C 49.0249 75.4294 49.5862 75.2128 49.7302 75.0688 C 49.9853 74.814 49.7676 74.4741 49.6046 74.4528 C 49.519 74.4418 48.9937 74.3944 48.5045 74.4613 C 48.6989 73.6804 49.4031 73.1007 50.2444 73.1007 C 50.9769 73.1007 51.6047 73.5403 51.8842 74.1688 C 51.9956 74.0395 52.1308 73.9097 52.3128 73.8009 C 52.4259 73.7297 52.5753 73.6736 52.7335 73.6532 C 52.8925 73.6296 53.0626 73.6588 53.1952 73.7172 C 53.4677 73.836 53.6117 74.0268 53.7222 74.2003 C 53.8302 74.3791 53.8999 74.5608 53.9507 74.7445 C 54.0014 74.9279 54.0306 75.1144 54.036 75.3024 C 53.7851 75.0288 53.5405 74.7629 53.286 74.5889 " fill="#321e0f"/>
<path transform="matrix(1,0,0,-1,1,107.181)" d="M 65.194 60.1843 C 64.9369 59.9454 64.6784 59.7305 64.408 59.561 C 64.1404 59.3887 63.8779 59.2478 63.6214 59.1347 C 63.5885 59.1214 63.5573 59.1069 63.5221 59.0973 C 63.4867 59.0885 63.449 59.0831 63.413 59.0763 C 63.3385 59.0664 63.2699 59.0525 63.197 59.0479 C 63.0541 59.0349 62.9538 58.9737 62.8682 58.8657 C 62.7877 58.7492 62.7055 58.6176 62.6278 58.4314 C 62.5507 58.2398 62.4614 58.0391 62.3784 57.7043 L 62.4277 57.5065 C 62.6627 57.2737 62.9002 57.1496 63.1329 57.0818 C 63.3637 57.0226 63.5961 57.0059 63.8062 57.0557 C 63.9108 57.0801 64.0159 57.1082 64.1027 57.1689 C 64.1908 57.2264 64.2685 57.3009 64.3388 57.3831 C 64.4083 57.4659 64.4644 57.564 64.5245 57.653 L 64.7019 57.9132 C 64.7606 57.998 64.823 58.0774 64.8748 58.1644 L 65.0248 58.4263 L 65.1467 58.6996 C 65.1832 58.792 65.213 58.8869 65.2448 58.9788 C 65.3553 59.3569 65.4205 59.7334 65.3888 60.1234 Z " fill="#321e0f"/>
<path transform="matrix(1,0,0,-1,1,107.181)" d="M 68.5871 77.3878 C 67.8438 77.1778 67.1502 76.7662 66.596 76.2267 C 66.5271 76.1587 66.456 76.0924 66.3911 76.0218 L 66.2037 75.8024 L 66.0234 75.5779 C 65.9642 75.5025 65.9126 75.4194 65.8602 75.3381 L 65.7057 75.0934 L 65.6297 74.9707 C 65.605 74.9296 65.5937 74.9013 65.5753 74.8658 C 65.5084 74.7371 65.4426 74.6317 65.389 74.5676 L 65.3321 74.4993 C 65.3193 74.4812 65.3071 74.4718 65.2728 74.4639 C 65.2065 74.4503 65.0733 74.5024 64.9514 74.5892 C 64.6968 74.7629 64.4522 75.0291 64.2013 75.3024 C 64.2064 75.1147 64.2359 74.9279 64.2866 74.7448 C 64.3371 74.5608 64.4068 74.3794 64.5151 74.2003 C 64.6254 74.0265 64.7694 73.8363 65.0421 73.7175 C 65.1745 73.6588 65.3445 73.6299 65.5041 73.6534 C 65.662 73.6736 65.8114 73.7294 65.9245 73.8011 C 66.1062 73.9097 66.2414 74.0398 66.3531 74.1688 C 66.6323 73.5401 67.2605 73.101 67.9927 73.101 C 68.834 73.101 69.5381 73.6804 69.7326 74.4613 C 69.2433 74.3941 68.718 74.4418 68.6324 74.4531 C 68.4697 74.4744 68.252 74.8142 68.5071 75.0688 C 68.6509 75.2128 69.2124 75.4294 69.6512 75.5838 C 69.5551 75.8149 69.412 76.0207 69.2342 76.1913 C 68.6648 75.9288 68.631 76.2418 68.6327 76.3342 C 68.7331 76.3988 68.8329 76.4637 68.9372 76.5241 C 69.5013 76.847 70.1152 77.1131 70.827 77.3201 C 70.4823 77.4765 70.1016 77.5267 69.7229 77.5372 C 69.3414 77.5485 68.9613 77.4845 68.5871 77.3878 " fill="#321e0f"/>
<path transform="matrix(1,0,0,-1,1,107.181)" d="M 82.5259 82.887 C 82.3388 82.6744 82.1415 82.4689 81.936 82.2711 C 81.5233 81.8768 81.0765 81.5153 80.6051 81.1905 C 79.6603 80.5428 78.6132 80.0396 77.5071 79.7233 C 76.9544 79.5665 76.3897 79.4415 75.8154 79.3772 C 75.6729 79.3545 75.5291 79.342 75.3846 79.3315 C 75.2406 79.3208 75.0969 79.3049 74.952 79.2981 C 74.6629 79.293 74.3734 79.2717 74.0829 79.2856 C 72.9224 79.3054 71.7596 79.4744 70.6224 79.7618 C 70.4273 79.8114 70.2133 79.734 70.098 79.5552 C 69.9534 79.331 70.0183 79.0319 70.2425 78.8873 L 70.2479 78.8842 C 70.2607 78.876 70.3049 78.8465 70.3349 78.8224 C 70.3687 78.7972 70.4027 78.7703 70.4364 78.7422 C 70.5036 78.6855 70.5711 78.6268 70.6357 78.5636 C 70.7661 78.4389 70.8894 78.3037 71.0048 78.1608 C 71.2346 77.8751 71.4356 77.5621 71.6 77.2291 C 71.932 76.5638 72.1256 75.8262 72.2015 75.0711 C 72.2194 74.8817 72.2319 74.6918 72.2373 74.5007 C 72.2421 74.3176 72.2358 74.139 72.2154 73.9585 C 72.1752 73.5993 72.0879 73.2438 71.9546 72.9051 C 71.8889 72.7356 71.8121 72.57 71.7256 72.4096 C 71.6825 72.328 71.6372 72.2523 71.5876 72.1706 L 71.4317 71.9249 C 71.2193 71.598 70.9906 71.2789 70.7516 70.9625 C 69.7944 69.6986 68.684 68.4901 67.7554 67.108 C 67.1757 66.2596 66.6669 65.3465 66.2576 64.3876 C 66.2845 64.5738 66.3154 64.7603 66.3528 64.9468 C 66.4863 65.6016 66.6505 66.2618 66.8721 66.9087 C 67.0881 67.557 67.3384 68.2002 67.6222 68.832 C 67.9076 69.4627 68.2197 70.0858 68.5757 70.6873 C 68.1055 70.1691 67.6692 69.6163 67.2548 69.0449 C 66.8418 68.4723 66.4557 67.8762 66.0977 67.2574 C 65.7346 66.6408 65.4211 65.9911 65.1348 65.3202 C 64.9672 64.9264 64.8247 64.5191 64.6971 64.1027 C 64.3538 64.2101 63.9975 64.2909 63.6372 64.3501 C 63.5729 65.3102 63.5091 66.2709 63.4612 67.2318 C 63.3994 68.3918 63.356 69.552 63.3274 70.7134 C 63.3076 71.8733 63.2945 73.0363 63.3342 74.1963 L 63.3713 75.066 C 63.3912 75.3545 63.4068 75.6456 63.4337 75.9339 C 63.4873 76.5119 63.5428 77.0924 63.7058 77.6529 C 63.4428 77.1282 63.2789 76.5561 63.1202 75.9912 C 63.04 75.7071 62.9719 75.4217 62.8988 75.136 L 62.7021 74.2751 C 62.4495 73.1239 62.2497 71.9646 62.0569 70.8026 C 61.8718 69.6404 61.7026 68.4748 61.5515 67.3078 C 61.4265 66.367 61.3168 65.4253 61.2082 64.4828 C 60.2306 64.4477 59.44 64.3269 59.1185 64.2719 C 58.7971 64.3269 58.0062 64.4474 57.0291 64.4828 C 56.9205 65.4253 56.8103 66.367 56.6858 67.3078 C 56.5345 68.4748 56.3655 69.6404 56.1807 70.8026 C 55.9874 71.9646 55.7878 73.1239 55.5352 74.2751 L 55.3385 75.136 C 55.2654 75.4217 55.1974 75.7071 55.1169 75.9912 C 54.9578 76.5561 54.7948 77.1282 54.5315 77.6529 C 54.6945 77.0924 54.7498 76.5119 54.8036 75.9339 C 54.8308 75.6456 54.8461 75.3545 54.8657 75.066 L 54.9031 74.1963 C 54.9428 73.0363 54.9295 71.8733 54.9094 70.7134 C 54.8813 69.552 54.8374 68.3918 54.7761 67.2318 C 54.7277 66.2709 54.6642 65.31 54.5998 64.3501 C 54.2398 64.2909 53.8838 64.2101 53.5402 64.1027 C 53.4127 64.5191 53.2701 64.9264 53.1023 65.3202 C 52.816 65.9911 52.5025 66.6408 52.1396 67.2574 C 51.7816 67.8762 51.3955 68.4723 50.9825 69.0449 C 50.5681 69.6163 50.1318 70.1691 49.6616 70.6873 C 50.0173 70.0858 50.3294 69.4627 50.6149 68.832 C 50.8992 68.2002 51.1489 67.557 51.3652 66.9087 C 51.5866 66.2618 51.751 65.6016 51.8839 64.9468 C 51.9219 64.7603 51.9525 64.5738 51.9797 64.3876 C 51.5704 65.3465 51.0613 66.2596 50.4816 67.108 C 49.5533 68.4901 48.443 69.6986 47.486 70.9625 C 47.247 71.2789 47.0177 71.598 46.8057 71.9249 L 46.6498 72.1706 C 46.6002 72.2523 46.5551 72.328 46.5117 72.4096 C 46.4253 72.57 46.3484 72.7356 46.2824 72.9051 C 46.1494 73.2438 46.0621 73.5993 46.0219 73.9585 C 46.0015 74.139 45.9952 74.3176 46.0001 74.5007 C 46.0057 74.6918 46.0179 74.8817 46.0352 75.0711 C 46.1117 75.8262 46.3054 76.5638 46.6373 77.2291 C 46.8017 77.5621 47.0024 77.8751 47.2323 78.1608 C 47.3477 78.3037 47.4712 78.4389 47.6016 78.5636 C 47.6663 78.6268 47.7334 78.6855 47.8009 78.7422 C 47.8346 78.7703 47.8687 78.7972 47.9024 78.8224 C 47.9327 78.8465 47.9767 78.876 47.9894 78.8842 L 47.9954 78.8876 C 48.1646 78.997 48.2536 79.206 48.2014 79.4123 C 48.136 79.6706 47.8735 79.8273 47.6147 79.7618 C 46.4774 79.4744 45.3149 79.3054 44.1541 79.2856 C 43.8639 79.2717 43.5747 79.293 43.285 79.2981 C 43.1405 79.3049 42.9968 79.3208 42.8525 79.3315 C 42.7085 79.342 42.5645 79.3545 42.4219 79.3772 C 41.8479 79.4415 41.2832 79.5665 40.7302 79.7233 C 39.6241 80.0396 38.577 80.5428 37.6322 81.1905 C 37.1605 81.5153 36.714 81.8768 36.3013 82.2711 C 36.0958 82.4689 35.8982 82.6744 35.7114 82.887 C 35.6431 82.965 35.5782 83.0449 35.5133 83.1246 C 35.6723 83.2649 35.833 83.4024 35.9955 83.5387 C 36.3719 83.7689 36.7603 83.9755 37.1701 84.1311 C 37.7186 84.3381 38.2839 84.4991 38.8664 84.5728 C 39.4478 84.6473 40.0374 84.6621 40.6267 84.621 C 41.2166 84.5708 41.8039 84.4688 42.3836 84.3236 C 42.5078 84.2922 42.6314 84.2579 42.7547 84.2224 C 42.0908 84.1198 41.4422 83.9605 40.8183 83.7462 C 40.3549 83.5886 39.9044 83.4029 39.4696 83.19 C 39.0356 82.9769 38.6133 82.7419 38.2221 82.4661 C 38.658 82.6614 39.1107 82.8088 39.5666 82.9315 C 40.0226 83.0543 40.4841 83.1464 40.9465 83.2093 C 41.8711 83.338 42.8003 83.3411 43.6986 83.2286 C 44.1873 83.1662 44.6652 83.0645 45.1298 82.9301 C 45.1111 82.9278 45.0921 82.9267 45.0734 82.9239 C 44.3534 82.8476 43.6496 82.6999 42.9758 82.4803 C 42.3026 82.2623 41.652 81.9845 41.0536 81.631 C 41.7104 81.8558 42.3882 81.991 43.0651 82.065 C 43.7417 82.1407 44.4203 82.1404 45.0816 82.0746 C 45.4127 82.0534 45.7381 81.9828 46.0599 81.9303 C 46.3782 81.8453 46.6971 81.7858 47.0001 81.6684 C 47.0458 81.6545 47.0903 81.6386 47.1353 81.6233 L 47.1351 81.6245 C 50.2843 80.852 50.9202 82.8978 50.9975 83.2073 L 52.0398 87.7045 L 50.442 84.9719 C 50.2019 85.2097 49.9501 85.5054 49.7546 85.7565 L 50.9584 89.5465 C 51.4315 89.428 51.9066 89.3188 52.3843 89.2236 C 52.7664 89.149 53.1502 89.0844 53.5357 89.0246 C 53.966 88.2252 54.7909 86.383 54.6324 84.2445 L 54.57 83.4055 L 55.3819 83.6269 C 55.4967 83.658 56.1008 83.8619 56.6921 84.7911 C 57.0767 85.3957 57.3744 86.1746 57.5847 87.1172 C 57.6791 86.0763 57.5946 84.5904 57.0895 82.4922 L 56.8264 81.3997 L 57.8778 81.7965 C 57.9855 81.8374 59.9956 82.643 61.1354 86.2503 C 61.9305 84.0407 63.1786 83.6663 63.3688 83.6218 L 64.2572 83.4131 L 64.0894 84.31 C 63.6273 86.7713 65.5027 88.8007 65.952 89.2449 C 66.3962 89.335 66.8384 89.4359 67.2789 89.5465 L 68.4828 85.7565 C 68.2875 85.5054 68.0357 85.2097 67.7954 84.9716 L 66.1972 87.7045 L 67.2316 83.2433 L 67.2338 83.247 C 67.2338 83.247 67.7027 80.7914 71.102 81.6239 C 71.1468 81.6386 71.1916 81.6545 71.2369 81.6684 C 71.5402 81.7858 71.8594 81.8453 72.1769 81.9303 C 72.4989 81.9828 72.8246 82.0534 73.156 82.0746 C 73.817 82.1404 74.4953 82.1407 75.1723 82.065 C 75.8489 81.991 76.5269 81.8558 77.184 81.631 C 76.5853 81.9845 75.9345 82.2623 75.2613 82.4803 C 74.5877 82.6999 73.8839 82.8476 73.1639 82.9239 C 73.1449 82.9267 73.1265 82.9278 73.1078 82.9301 C 73.5721 83.0645 74.05 83.1662 74.5384 83.2286 C 75.4367 83.3411 76.3662 83.338 77.2909 83.2093 C 77.7532 83.1464 78.2147 83.0543 78.6708 82.9315 C 79.1263 82.8088 79.5793 82.6614 80.0152 82.4661 C 79.6241 82.7419 79.202 82.9769 78.7677 83.19 C 78.3332 83.4029 77.8825 83.5886 77.4193 83.7462 C 76.7951 83.9605 76.1462 84.1198 75.4824 84.2224 C 75.606 84.2579 75.7293 84.2922 75.854 84.3236 C 76.4334 84.4688 77.0207 84.5708 77.6103 84.621 C 78.1999 84.6621 78.7895 84.6473 79.3709 84.5728 C 79.9532 84.4991 80.5187 84.3381 81.0672 84.1311 C 81.4793 83.9747 81.87 83.7663 82.2489 83.5347 C 82.4088 83.4004 82.5667 83.2632 82.7235 83.1246 C 82.6588 83.0449 82.5939 82.965 82.5259 82.887 Z M 66.1445 55.749 C 65.2201 54.7084 62.8872 54.4119 59.2126 54.8674 C 59.2075 54.868 59.2027 54.8671 59.1973 54.8677 C 59.1715 54.8702 59.1457 54.8694 59.1197 54.8694 C 59.0922 54.8697 59.0647 54.8702 59.038 54.8674 C 59.0335 54.8671 59.0289 54.8677 59.0247 54.8674 C 55.3499 54.4113 53.0172 54.7081 52.0929 55.749 C 51.186 56.7694 51.6368 58.5986 52.0722 60.3672 C 52.1269 60.5897 52.181 60.8102 52.2323 61.0262 C 52.8922 63.8348 58.9124 62.7562 58.9734 62.7443 C 58.9997 62.7392 59.0258 62.7395 59.0516 62.7372 C 59.0734 62.7352 59.0944 62.7316 59.1163 62.7313 C 59.1523 62.7313 59.1877 62.7358 59.2228 62.7406 C 59.2367 62.7426 59.2503 62.7418 59.2642 62.7443 C 59.3252 62.7562 65.3428 63.8425 66.005 61.0262 C 66.056 60.8102 66.1107 60.59 66.1652 60.3675 C 66.6009 58.5986 67.051 56.7694 66.1445 55.749 Z M 62.9433 52.8985 C 62.8639 52.8163 62.7219 52.7071 62.4033 52.7071 L 59.1185 52.7071 L 55.834 52.7071 C 55.5157 52.7071 55.3734 52.8163 55.2937 52.8985 C 55.2249 52.9699 55.1701 53.0597 55.1268 53.1573 C 55.4216 53.1394 55.7297 53.1303 56.0523 53.1303 C 56.9599 53.1303 57.9804 53.2006 59.1185 53.3387 C 60.2572 53.2006 61.2771 53.1303 62.185 53.1303 C 62.5079 53.1303 62.8157 53.1394 63.1106 53.1573 C 63.0669 53.0597 63.0125 52.9699 62.9433 52.8985 Z M 42.8689 86.5641 C 43.5506 86.5193 44.2097 86.349 44.8112 86.0454 C 45.4127 85.7435 45.9624 85.3274 46.4462 84.8296 C 46.6911 84.5745 46.921 84.3012 47.1351 84.0135 C 47.1195 84.0175 47.1036 84.0209 47.0877 84.0249 C 46.8723 84.1391 46.6551 84.2511 46.4355 84.3576 C 45.2492 84.928 44.0016 85.3951 42.6926 85.6681 C 42.0386 85.803 41.3714 85.8906 40.6979 85.9187 C 40.3364 85.9289 39.9739 85.9192 39.6119 85.892 C 40.6749 86.3563 41.7881 86.6375 42.8689 86.5641 Z M 38.8916 92.772 C 38.4591 93.4733 38.1427 94.2375 37.9647 95.038 C 37.7895 95.8385 37.7405 96.6736 37.8286 97.507 C 37.9176 98.3395 38.1127 99.1735 38.4134 99.9774 C 38.539 100.3136 38.6847 100.6438 38.842 100.9684 C 38.9106 100.3411 39.0243 99.7166 39.1929 99.1032 C 39.4997 97.9787 39.9912 96.8973 40.6437 95.9241 C 41.2929 94.9473 42.0976 94.0813 42.9911 93.3358 C 43.8834 92.5875 44.8659 91.9602 45.8881 91.4261 C 46.7606 90.9734 47.662 90.5919 48.5813 90.2639 C 48.5677 90.2676 48.5535 90.2701 48.5396 90.2735 C 47.9041 90.4224 47.2723 90.5933 46.6458 90.7875 C 46.021 90.9848 45.4 91.2022 44.79 91.4525 C 44.1822 91.7056 43.5779 91.9783 43.0072 92.3199 C 43.5036 91.8748 44.0521 91.4859 44.6111 91.1149 C 45.1729 90.7455 45.7546 90.4054 46.3484 90.0833 C 46.9431 89.7636 47.5515 89.4657 48.1697 89.1882 C 48.4781 89.0453 48.7925 88.9203 49.1049 88.7851 L 49.4283 88.6575 L 49.3622 88.4503 C 48.7749 88.5569 48.1873 88.6859 47.6036 88.8372 C 46.8048 89.0439 46.012 89.2902 45.2322 89.5799 C 44.8418 89.7233 44.4557 89.8804 44.0734 90.0473 C 43.6878 90.2123 43.3267 90.3932 42.9704 90.6063 C 42.264 91.0318 41.5908 91.5494 41.0536 92.2065 C 41.4556 91.455 42.0318 90.7937 42.6767 90.2098 C 42.9982 89.9178 43.3542 89.6482 43.7068 89.4013 C 44.0595 89.1516 44.4197 88.9104 44.7883 88.6819 C 45.5238 88.221 46.2861 87.7992 47.0707 87.4134 C 47.6314 87.137 48.204 86.8813 48.7885 86.6443 L 48.4614 85.6142 C 48.2434 85.8385 48.018 86.0573 47.7771 86.2622 C 47.1158 86.8337 46.3589 87.323 45.5258 87.6569 C 45.3688 87.7204 45.2081 87.7765 45.0468 87.8284 C 44.9433 87.8831 44.8396 87.9381 44.7364 87.9928 C 44.3503 88.1946 43.9628 88.3911 43.5855 88.6028 C 43.2065 88.8126 42.8389 89.0379 42.4772 89.2706 C 41.0496 90.2163 39.7463 91.3561 38.8916 92.772 Z M 55.0193 88.8797 C 55.1741 88.8814 55.3246 88.8885 55.4766 88.8945 C 55.6245 88.9055 55.7745 88.9146 55.9213 88.9282 C 56.1759 88.952 56.4265 88.9826 56.6759 89.0164 C 56.5089 87.2819 56.145 86.2398 55.8028 85.6236 C 55.6798 86.9451 55.2878 88.0812 54.9309 88.8809 C 54.9604 88.8806 54.9896 88.8806 55.0193 88.8797 Z M 59.1185 89.4685 C 59.597 89.3594 60.0656 89.2633 60.5435 89.1777 L 60.5443 89.1694 C 60.1807 86.3453 59.3101 84.7423 58.585 83.8692 C 59.0536 86.6993 58.7052 88.3474 58.252 89.2845 C 58.5388 89.3407 58.828 89.4022 59.1185 89.4685 Z M 62.316 88.9282 C 62.4628 88.9146 62.6125 88.9055 62.7608 88.8945 C 62.9124 88.8885 63.0632 88.8814 63.218 88.8797 C 63.3779 88.8843 63.527 88.8775 63.6973 88.8951 L 63.9439 88.916 L 64.1469 88.9421 C 63.5598 88.1076 62.9405 86.9159 62.8393 85.5062 C 62.4178 86.0981 61.9529 87.1509 61.7562 88.9911 C 61.9413 88.9676 62.1278 88.9458 62.316 88.9282 Z M 69.1322 88.7851 C 69.4449 88.9203 69.7595 89.0453 70.0673 89.1882 C 70.6859 89.4657 71.2939 89.7636 71.8889 90.0833 C 72.4827 90.4054 73.0644 90.7455 73.6257 91.1149 C 74.1852 91.4859 74.7337 91.8748 75.2298 92.3199 C 74.6595 91.9783 74.0551 91.7056 73.4471 91.4525 C 72.8374 91.2022 72.2163 90.9848 71.5912 90.7875 C 70.9654 90.5933 70.3335 90.4224 69.6977 90.2735 C 69.6841 90.2701 69.6696 90.2676 69.6557 90.2639 C 70.575 90.5919 71.4767 90.9734 72.3492 91.4261 C 73.3711 91.9602 74.3533 92.5875 75.2465 93.3358 C 76.1397 94.0813 76.9445 94.9473 77.5933 95.9241 C 78.2464 96.8973 78.7374 97.9787 79.0444 99.1032 C 79.213 99.7166 79.3267 100.3411 79.3953 100.9684 C 79.5529 100.6438 79.6978 100.3136 79.8239 99.9774 C 80.1247 99.1735 80.3194 98.3395 80.4087 97.507 C 80.4969 96.6736 80.4478 95.8385 80.2723 95.038 C 80.0946 94.2375 79.7783 93.4733 79.3457 92.772 C 78.4911 91.3561 77.1877 90.2163 75.7604 89.2706 C 75.3985 89.0379 75.0308 88.8126 74.6518 88.6028 C 74.2745 88.3911 73.887 88.1946 73.5009 87.9928 C 73.3978 87.9381 73.294 87.8831 73.1908 87.8284 C 73.0287 87.7765 72.8688 87.7204 72.7115 87.6569 C 71.8784 87.323 71.1213 86.8337 70.4602 86.2622 C 70.2193 86.0573 69.9939 85.8385 69.7757 85.6142 L 69.4485 86.6443 C 70.033 86.8813 70.6059 87.137 71.1666 87.4134 C 71.9507 87.7992 72.7135 88.221 73.4491 88.6819 C 73.8173 88.9104 74.1779 89.1516 74.5308 89.4013 C 74.8828 89.6482 75.2391 89.9178 75.5606 90.2098 C 76.2055 90.7937 76.7818 91.455 77.184 92.2065 C 76.6466 91.5494 75.9733 91.0318 75.2669 90.6063 C 74.9103 90.3932 74.5495 90.2123 74.1637 90.0473 C 73.7813 89.8804 73.3952 89.7233 73.0046 89.5799 C 72.2254 89.2902 71.4325 89.0439 70.6334 88.8372 C 70.05 88.6859 69.4624 88.5569 68.8748 88.4503 L 68.809 88.6575 Z M 78.6251 85.892 C 78.2634 85.9192 77.9012 85.9289 77.5395 85.9187 C 76.8657 85.8906 76.1987 85.803 75.5444 85.6681 C 74.2357 85.3951 72.9884 84.928 71.8021 84.3576 C 71.5819 84.2511 71.365 84.1391 71.1493 84.0249 C 71.1337 84.0209 71.1179 84.0175 71.102 84.0135 C 71.3163 84.3012 71.5462 84.5745 71.7908 84.8296 C 72.275 85.3274 72.8246 85.7435 73.4261 86.0454 C 74.0279 86.349 74.687 86.5193 75.3681 86.5641 C 76.4487 86.6375 77.5624 86.3563 78.6251 85.892 Z M 83.9517 83.6181 L 83.9364 83.6325 C 82.7938 84.7525 81.553 85.7982 80.1437 86.6506 C 79.437 87.0724 78.6881 87.4494 77.881 87.7187 C 77.5171 87.8454 77.1384 87.9409 76.7531 88.0166 C 77.493 88.5243 78.205 89.0867 78.8533 89.7296 C 79.1912 90.0697 79.5129 90.4286 79.8137 90.8076 C 80.1102 91.1906 80.3849 91.5928 80.6289 92.016 C 81.1188 92.861 81.4609 93.7998 81.6386 94.7642 C 81.8184 95.7291 81.815 96.7184 81.6687 97.6694 C 81.5264 98.6233 81.2282 99.5369 80.8449 100.3978 C 80.6508 100.8278 80.4336 101.2453 80.1941 101.6495 C 80.0753 101.8519 79.9455 102.0478 79.812 102.242 C 79.6751 102.4381 79.5436 102.6196 79.3786 102.82 L 78.5733 102.5442 C 78.5492 101.4667 78.3955 100.398 78.0831 99.3824 C 77.7728 98.3665 77.3011 97.4069 76.6868 96.5475 C 75.4634 94.8163 73.6943 93.5186 71.7659 92.5869 C 69.8289 91.6529 67.7208 91.0565 65.5849 90.6968 C 65.0497 90.6086 64.5129 90.5346 63.9763 90.4799 L 63.775 90.4601 L 63.6049 90.4516 C 63.498 90.4419 63.3679 90.4521 63.2494 90.4516 C 63.1259 90.4569 62.9983 90.4669 62.8724 90.4757 L 62.4852 90.5168 C 61.4837 90.6449 60.442 90.8708 59.4462 91.1305 C 59.3541 91.167 59.2557 91.1857 59.1542 91.188 C 59.1372 91.1891 59.1202 91.19 59.1032 91.1903 C 59.0924 91.1897 59.0817 91.1889 59.0712 91.188 C 58.9711 91.1846 58.8739 91.1653 58.7835 91.1285 C 57.7902 90.8697 56.7513 90.6446 55.7521 90.5168 L 55.3649 90.4757 C 55.239 90.4669 55.1112 90.4569 54.9879 90.4516 C 54.8697 90.4521 54.7393 90.4419 54.6321 90.4516 L 54.4626 90.4601 L 54.2611 90.4799 C 53.7239 90.5346 53.187 90.6086 52.6527 90.6968 C 50.5165 91.0565 48.4084 91.6529 46.4712 92.5869 C 44.5428 93.5186 42.774 94.8163 41.5505 96.5475 C 40.9363 97.4069 40.4643 98.3665 40.1545 99.3824 C 39.8415 100.398 39.6884 101.4667 39.6641 102.5442 L 38.8582 102.82 C 38.6938 102.6196 38.5622 102.4381 38.4253 102.242 C 38.2918 102.0478 38.1623 101.8519 38.0432 101.6495 C 37.8034 101.2453 37.5866 100.8278 37.3924 100.3978 C 37.0091 99.5369 36.7112 98.6233 36.5686 97.6694 C 36.4224 96.7184 36.4187 95.7291 36.5984 94.7642 C 36.7764 93.7998 37.1186 92.861 37.6084 92.016 C 37.8522 91.5928 38.1268 91.1906 38.4233 90.8076 C 38.7244 90.4286 39.0458 90.0697 39.3837 89.7296 C 40.0317 89.0867 40.7443 88.5243 41.4842 88.0166 C 41.099 87.9409 40.7203 87.8454 40.3563 87.7187 C 39.5493 87.4494 38.8003 87.0724 38.0934 86.6506 C 36.684 85.7982 35.4436 84.7525 34.3009 83.6325 L 34.2856 83.6181 C 34.088 83.425 34.052 83.1121 34.2136 82.8765 C 34.2729 82.7898 34.3176 82.7306 34.3698 82.6628 C 34.42 82.5968 34.471 82.5335 34.5223 82.4706 C 34.6252 82.3453 34.7306 82.2249 34.8384 82.1064 C 35.0541 81.8702 35.2789 81.6457 35.5119 81.43 C 35.9793 81.0011 36.4805 80.6117 37.0083 80.263 C 38.0645 79.5691 39.2298 79.0384 40.4484 78.7153 C 41.6648 78.3887 42.9267 78.241 44.1751 78.2824 C 44.8812 78.3017 45.5825 78.374 46.275 78.4888 C 46.0865 78.224 45.9196 77.946 45.7773 77.6565 C 45.3875 76.8725 45.1681 76.0184 45.0836 75.1657 C 45.0641 74.9523 45.051 74.7386 45.0448 74.5254 C 45.0388 74.3046 45.0485 74.0784 45.0714 73.8564 C 45.1179 73.4117 45.2231 72.9743 45.3821 72.559 C 45.4612 72.3512 45.5536 72.1485 45.6576 71.9527 C 45.7084 71.8549 45.7659 71.7565 45.8212 71.6649 L 45.9876 71.3976 C 46.2138 71.0439 46.4542 70.7046 46.7002 70.3732 C 47.6921 69.0565 48.7409 67.8413 49.5964 66.5195 C 50.027 65.8616 50.4062 65.1781 50.7254 64.4703 C 50.9817 63.8921 51.188 63.2954 51.3544 62.6879 C 51.0763 62.3239 50.8646 61.8914 50.7433 61.3766 C 50.6937 61.1654 50.6409 60.9503 50.5874 60.7329 C 50.082 58.6806 49.5094 56.3547 50.9494 54.7336 C 51.529 54.0814 52.3647 53.6326 53.4864 53.3789 C 53.5584 52.9174 53.7392 52.3128 54.1845 51.8462 C 54.6015 51.4091 55.1718 51.1778 55.834 51.1778 L 59.1185 51.1778 L 62.4033 51.1778 C 63.0652 51.1778 63.6361 51.4091 64.0528 51.8462 C 64.4978 52.3134 64.6784 52.9177 64.7507 53.3789 C 65.8723 53.6326 66.7086 54.0814 67.2877 54.7336 C 68.728 56.3547 68.1554 58.6806 67.65 60.7329 C 67.5964 60.9503 67.5434 61.1654 67.4938 61.3766 C 67.3727 61.8914 67.161 62.3239 66.8826 62.6879 C 67.049 63.2954 67.2559 63.8921 67.5119 64.4703 C 67.8314 65.1781 68.2104 65.8616 68.6409 66.5195 C 69.4964 67.8413 70.5453 69.0565 71.5368 70.3732 C 71.7831 70.7046 72.0235 71.0439 72.2494 71.3976 L 72.4161 71.6649 C 72.4714 71.7565 72.5289 71.8549 72.58 71.9527 C 72.6837 72.1485 72.7756 72.3512 72.8552 72.559 C 73.0142 72.9743 73.1194 73.4117 73.1656 73.8564 C 73.1886 74.0784 73.1988 74.3046 73.1923 74.5254 C 73.1866 74.7386 73.1733 74.9523 73.1537 75.1657 C 73.0689 76.0184 72.8498 76.8725 72.4601 77.6565 C 72.3175 77.946 72.1508 78.224 71.9623 78.4888 C 72.6545 78.374 73.3561 78.3017 74.0619 78.2824 C 75.3106 78.241 76.5726 78.3887 77.7892 78.7153 C 79.0075 79.0384 80.1729 79.5691 81.229 80.263 C 81.7569 80.6117 82.258 81.0011 82.7252 81.43 C 82.9582 81.6457 83.183 81.8702 83.3992 82.1064 C 83.5064 82.2249 83.6121 82.3453 83.715 82.4706 C 83.7663 82.5335 83.8174 82.5968 83.8675 82.6628 C 83.9194 82.7306 83.9642 82.7898 84.024 82.8765 C 84.1805 83.1042 84.1558 83.4182 83.9517 83.6181 " fill="#321e0f"/>
<path transform="matrix(1,0,0,-1,1,107.181)" d="M 32.7971 53.149 L 32.7971 60.3536 C 32.6829 60.2155 32.5213 60.1087 32.313 60.033 C 32.1043 59.9576 31.8991 59.9196 31.6973 59.9196 L 31.6973 60.9236 C 31.9833 60.9642 32.2549 61.0801 32.5123 61.2717 C 32.7694 61.4636 32.9655 61.7176 33.0999 62.0337 L 34.1493 62.0337 L 34.1493 53.149 Z " fill="#f9e0c8"/>
<path transform="matrix(1,0,0,-1,1,107.181)" d="M 36.8878 57.6091 C 37.2209 57.6091 37.4108 57.7536 37.4579 58.0431 L 37.4579 59.728 C 37.4579 60.1651 37.4185 60.4797 37.3394 60.6713 C 37.2603 60.8632 37.1092 60.9591 36.8853 60.9591 C 36.6616 60.9591 36.5097 60.8615 36.4286 60.6662 C 36.3481 60.4712 36.3078 60.1534 36.3078 59.7127 L 36.3078 58.9207 C 36.3078 58.4297 36.3472 58.0884 36.4263 57.8965 C 36.5051 57.7049 36.6591 57.6091 36.8878 57.6091 Z M 38.3511 53.6811 C 38.0517 53.2593 37.586 53.0481 36.9536 53.0481 C 36.3212 53.0481 35.8586 53.2213 35.5663 53.568 C 35.2735 53.9144 35.1252 54.4859 35.1221 55.283 L 35.1221 55.7674 L 36.3986 55.7674 L 36.3986 55.5809 C 36.402 55.0324 36.4397 54.667 36.5119 54.4833 C 36.5842 54.3005 36.7214 54.2083 36.9232 54.2083 C 37.1248 54.2083 37.2495 54.2497 37.2966 54.3322 C 37.3436 54.4144 37.3825 54.4952 37.4125 54.5743 C 37.4428 54.6534 37.4579 54.9147 37.4579 55.3589 L 37.4579 56.6855 C 37.273 56.5614 36.9989 56.499 36.6355 56.499 C 36.0369 56.499 35.6125 56.7162 35.3619 57.1499 C 35.1113 57.5836 34.9858 58.2412 34.9858 59.1225 L 34.9858 59.4454 C 34.9858 60.5486 35.176 61.2901 35.5558 61.6703 C 35.8651 61.9798 36.307 62.1346 36.8804 62.1346 C 37.4539 62.1346 37.8757 62.0243 38.1467 61.8041 C 38.4174 61.5838 38.594 61.2785 38.6762 60.8885 C 38.759 60.4981 38.8001 59.9922 38.8001 59.37 L 38.8001 55.823 C 38.8001 54.8172 38.6504 54.1035 38.3511 53.6811 " fill="#f9e0c8"/>
<path transform="matrix(1,0,0,-1,1,107.181)" d="M 81.2597 57.6873 C 81.5927 57.6873 81.7826 57.8322 81.8297 58.1213 L 81.8297 59.8065 C 81.8297 60.2436 81.7903 60.5582 81.7112 60.7499 C 81.6324 60.9415 81.481 61.0376 81.2571 61.0376 C 81.0334 61.0376 80.8815 60.9398 80.8004 60.7448 C 80.7199 60.5497 80.6797 60.2317 80.6797 59.7912 L 80.6797 58.9992 C 80.6797 58.5079 80.7191 58.1666 80.7982 57.975 C 80.8773 57.7834 81.0309 57.6873 81.2597 57.6873 Z M 82.7229 53.7596 C 82.4236 53.3378 81.9578 53.1264 81.3254 53.1264 C 80.6927 53.1264 80.2304 53.2998 79.9381 53.6462 C 79.6453 53.9926 79.4974 54.5644 79.494 55.3615 L 79.494 55.8459 L 80.7704 55.8459 L 80.7704 55.6594 C 80.7738 55.1109 80.8115 54.7452 80.8838 54.5618 C 80.9561 54.3787 81.0933 54.2869 81.2951 54.2869 C 81.4969 54.2869 81.6214 54.3283 81.6684 54.4107 C 81.7155 54.4929 81.7543 54.5737 81.7843 54.6528 C 81.8147 54.7319 81.8297 54.9933 81.8297 55.4374 L 81.8297 56.7641 C 81.6449 56.6399 81.3708 56.5775 81.0074 56.5775 C 80.4087 56.5775 79.9843 56.7944 79.7338 57.2284 C 79.4832 57.6621 79.3576 58.3197 79.3576 59.2007 L 79.3576 59.5239 C 79.3576 60.6271 79.5478 61.3687 79.9277 61.7485 C 80.2372 62.0583 80.6788 62.2131 81.2523 62.2131 C 81.8257 62.2131 82.2475 62.1028 82.5185 61.8823 C 82.7892 61.6623 82.9658 61.357 83.048 60.967 C 83.1308 60.5767 83.1719 60.0704 83.1719 59.4482 L 83.1719 55.9015 C 83.1719 54.8957 83.0222 54.182 82.7229 53.7596 " fill="#f9e0c8"/>
<path transform="matrix(1,0,0,-1,1,107.181)" d="M 85.5697 54.5896 C 85.6655 54.3946 85.8345 54.2971 86.0769 54.2971 C 86.3186 54.2971 86.4831 54.3762 86.5684 54.5343 C 86.6543 54.6922 86.6974 54.9867 86.6974 55.4173 L 86.6974 56.2595 C 86.6974 56.7575 86.6543 57.1088 86.5684 57.314 C 86.4831 57.5192 86.3374 57.6218 86.1321 57.6218 C 85.9269 57.6218 85.7631 57.5753 85.6403 57.4832 C 85.5176 57.3908 85.4459 57.2788 85.4257 57.1476 L 85.4257 55.5432 C 85.4257 55.1027 85.4739 54.7849 85.5697 54.5896 Z M 85.4257 58.3685 C 85.6378 58.6508 86.0063 58.7925 86.531 58.7925 C 87.0557 58.7925 87.4321 58.5819 87.6609 58.1615 C 87.8896 57.7412 88.0038 57.0719 88.0038 56.1538 L 88.0038 55.6642 C 88.0038 54.8101 87.8695 54.1726 87.6002 53.7523 C 87.3315 53.3319 86.8232 53.1215 86.0769 53.1215 C 85.1553 53.1247 84.5649 53.4764 84.306 54.176 C 84.1513 54.5964 84.0739 55.1667 84.0739 55.8865 L 84.0739 59.5341 C 84.0739 60.8187 84.3695 61.6292 84.9617 61.9656 C 85.2511 62.1272 85.6276 62.2097 86.0919 62.2131 C 86.694 62.2131 87.1319 62.0422 87.406 61.7006 C 87.6804 61.3596 87.819 60.7816 87.8224 59.9678 L 87.8224 59.5089 L 86.561 59.5089 L 86.561 59.6903 C 86.561 60.2252 86.531 60.5835 86.4703 60.7652 C 86.4099 60.9466 86.2583 61.0376 86.0162 61.0376 C 85.7741 61.0376 85.6151 60.9398 85.5394 60.7448 C 85.4637 60.5497 85.4257 60.1798 85.4257 59.6347 Z " fill="#f9e0c8"/>
</g>
</g>
</svg>
